<?xml version="1.0" standalone="yes"?>
<svg xmlns="http://www.w3.org/2000/svg" width="2200" height="1288">
<path style="fill:#e31933; stroke:none;" d="M0 0L0 1288L2200 1288L2200 0L0 0z"/>
<path style="fill:#ffffff; stroke:none;" d="M752 608C745.465 598.8 735.503 591.951 728.372 583C716.064 567.552 708.288 549.131 704.117 530C698.976 506.426 701.37 481.475 710.061 459C717.606 439.49 729.984 423.374 745 409.039C757.54 397.069 773.677 388.369 790 382.83C803.786 378.152 819.396 375.4 834 376.039C905.017 379.149 963.927 442.42 958.911 514C957.549 533.43 950.556 553.408 940.6 570C932.24 583.933 920.926 598.289 907 607C910.699 608.552 915.017 608 919 608L939 608L1012 608C1016.07 597.234 1023.57 587.776 1027.91 577C1041.21 543.948 1047.41 506.331 1040.8 471C1037.72 454.483 1034.23 438.571 1027.57 423C1018.47 401.712 1005.26 383.425 990.271 365.999C929.761 295.653 819.091 279.721 737 317.309C698.198 335.076 668.019 363.444 645.001 399C614.587 445.979 607.89 512.892 627.95 565C632.064 575.686 636.143 585.956 641.73 596C643.715 599.568 645.859 604.752 649.468 606.972C652.125 608.607 656.025 608 659 608L678 608L752 608M298 311L298 608L372 608L372 497L493 497L493 608L567 608L567 311L493 311L493 429L372 429L372 311L298 311M1094 311L1094 608L1168 608L1168 460C1183.53 483.475 1198.6 507.296 1213.78 531L1227.32 551.985C1229.2 554.9 1231.3 559.159 1234.38 560.987C1237.09 562.596 1240.99 562 1244 562L1265 562C1268.02 562 1271.97 562.608 1274.67 560.972C1277.46 559.281 1278.98 555.639 1280.7 553L1292.5 535C1303.14 518.708 1313.74 502.393 1324.22 486C1329.15 478.287 1335.75 470.571 1339 462C1340.61 467.436 1340 473.36 1340 479L1340 509L1340 608L1415 608L1415 311L1376 311C1371.18 311 1363.51 309.568 1359.18 312.028C1354.79 314.526 1352.19 320.937 1349.48 325C1343.06 334.638 1336.85 344.461 1330.28 354C1315.07 376.103 1300.71 398.793 1285.66 421C1275.36 436.178 1263.14 451.568 1255 468C1243.97 455.024 1235.37 439.283 1226.05 425.039C1210.91 401.913 1195.31 379.086 1180.05 356.039C1173.43 346.039 1166.71 336.084 1160.22 326C1157.39 321.612 1154.34 314.741 1149.7 312.028C1145.46 309.551 1137.76 311 1133 311L1094 311M1475 311L1475 608L1701 608L1701 543L1550 543L1550 493L1682 493L1682 429L1550 429L1550 375L1701 375L1701 311L1475 311M760 533C761.986 541.558 766.259 549.08 771.579 556C798.641 591.198 849.839 594.108 881.665 563.844C889.948 555.968 898.203 544.561 900 533L760 533M601 878L546 878C539.86 878 528.987 875.892 523.418 878.603C520.377 880.084 518.879 885.281 517.135 888C513.149 894.217 508.556 899.924 503 904.816C480.806 924.353 446.33 926.245 420 914.561C368.87 891.873 358.186 819.951 393.3 779C407.413 762.541 427.802 754.221 449 752.17C469.882 750.149 493.023 758.152 507.561 773.286C511.721 777.617 515.311 782.846 518.373 788C519.756 790.326 520.827 794.135 523.418 795.397C528.988 798.108 539.86 796 546 796L601 796C599.613 785.083 595.678 775.021 591.284 765C559.127 691.67 468.919 666.103 397 691.698C334.395 713.979 296.686 773.665 297.001 839C297.304 901.817 335.52 959.551 395 981.47C464.319 1007.01 548.791 985.32 586.28 919C593.309 906.565 599.192 892.235 601 878M643 688L643 986L717 986L717 900L757 900C761.396 900 768.75 898.612 772.621 901.028C778.089 904.44 782.375 914.635 785.857 920C795.619 935.038 805.522 949.978 815.305 965C819.081 970.799 823.393 981.271 829.376 984.972C831.574 986.332 834.532 985.995 837 986L854 986L916 986C911.345 975.348 903.22 965.635 896.742 956C885.317 939.009 873.864 922.037 862.506 905C857.333 897.24 850.759 889.543 847 881C857.357 876.701 866.39 867.398 873.572 859C911.052 815.174 901.563 741.744 854 709.594C822.437 688.259 785.557 688 749 688L643 688M951 688L951 986L1176 986L1176 921L1026 921L1026 870L1158 870L1158 806L1026 806L1026 753L1176 753L1176 688L951 688M1225 688L1225 986L1314 986C1335.01 986 1356.16 986.678 1377 983.7C1401.07 980.261 1425.03 970.739 1445 956.975C1511.52 911.128 1525.21 812.684 1478.22 748C1462.42 726.257 1439.42 710.989 1415 700.569C1385.49 687.975 1353.47 688 1322 688L1225 688M1546 688L1546 986L1620 986L1620 688L1546 688M1659 688L1659 755L1744 755L1744 986L1818 986L1818 755L1903 755L1903 688L1659 688z"/>
<path style="fill:#e31933; stroke:none;" d="M717 754L717 833L757 833C773.531 833 789.342 832.722 804 823.985C820.36 814.233 827.065 791.75 816.954 775.001C811.782 766.434 802.32 760.184 793 756.951C782.684 753.373 771.731 754 761 754L717 754M1300 755L1300 919C1331.93 919 1367.3 923.206 1395 903.961C1443.41 870.328 1441.36 793.403 1388 765.486C1361 751.358 1329.44 755 1300 755z"/>
</svg>
